<svg width="24" height="24" fill="currentColor" viewBox="0 0 24 24" xmlns="http://www.w3.org/2000/svg">
<path d="M4 14C4.55228 14 5 14.4477 5 15V19H9C9.55228 19 10 19.4477 10 20C10 20.5523 9.55228 21 9 21H3V15C3 14.4477 3.44772 14 4 14Z"/>
<path d="M20 14C20.5523 14 21 14.4477 21 15V21H15C14.4477 21 14 20.5523 14 20C14 19.4477 14.4477 19 15 19H19V15C19 14.4477 19.4477 14 20 14Z" />
<path d="M9 3C9.55228 3 10 3.44772 10 4C10 4.55228 9.55228 5 9 5H5V9C5 9.55228 4.55228 10 4 10C3.44772 10 3 9.55228 3 9V3H9Z" />
<path d="M21 9C21 9.55228 20.5523 10 20 10C19.4477 10 19 9.55228 19 9V5H15C14.4477 5 14 4.55228 14 4C14 3.44772 14.4477 3 15 3H21V9Z" />
</svg>
